<svg width="153" height="48" xmlns="http://www.w3.org/2000/svg" xmlns:xlink="http://www.w3.org/1999/xlink" overflow="hidden"><defs><clipPath id="clip0"><rect x="674" y="119" width="153" height="48"/></clipPath></defs><g clip-path="url(#clip0)" transform="translate(-674 -119)"><path d="M139.902 5.76399 138.755 5.76399 138.755 47.2838 139.902 47.2838 139.902 5.76399Z" fill="#7F7F7F" transform="matrix(1.00881 0 0 1 674 119)"/><path d="M151.664 0.693215 150.517 0.693215 150.517 42.2132 151.664 42.2132 151.664 0.693215Z" fill="#7F7F7F" transform="matrix(1.00881 0 0 1 674 119)"/><path d="M108.568 0C121.442 0 132.526 11.1067 132.526 23.9982 132.526 36.8896 121.438 47.9274 108.568 47.9274 95.6973 47.9274 84.6775 36.8934 84.6775 23.9982 84.6775 11.1029 95.6935 0 108.568 0ZM108.568 46.8778C121.442 46.8778 127.215 36.8934 127.215 23.9982 127.215 11.1029 121.442 1.04556 108.568 1.04556 95.6935 1.04556 89.9847 11.099 89.9847 23.9982 89.9847 36.8973 95.6935 46.8778 108.568 46.8778Z" fill="#7F7F7F" transform="matrix(1.00881 0 0 1 674 119)"/><path d="M23.6261 0.731486 22.3797 0.731486 18.124 36.4913 13.8683 0.731486 9.75788 0.731486 11.2567 13.0446 8.46167 37.2879 4.1142 0.731486 0 0.731486 5.57484 47.2647 9.62404 47.2647 9.03521 42.3318 11.7615 18.6784 11.88 18.6784 15.3289 47.2647 19.3781 47.2647 18.7166 41.6807 23.6261 0.731486Z" fill="#7F7F7F" transform="matrix(1.00881 0 0 1 674 119)"/><path d="M54.15 46.1157 54.15 0.731486 50.1697 0.731486 50.1697 47.2647 53.259 47.2647 63.4415 47.2647 63.4415 46.1157 54.15 46.1157Z" fill="#7F7F7F" transform="matrix(1.00881 0 0 1 674 119)"/><path d="M151.622 0.731486 151.622 47.2608 140.151 11.099 139.952 11.099 139.952 47.2608 139.29 47.2608 139.29 8.44106 136.832 0.731486 141.08 0.731486 150.769 31.7076 150.903 31.7076 150.968 0.731486 151.622 0.731486Z" fill="#7F7F7F" transform="matrix(1.00881 0 0 1 674 119)"/><path d="M43.2795 1.8958 43.2795 0.746828 43.203 0.746828 43.203 0.739168 31.2543 0.739168 31.2543 47.2685 43.203 47.2685 43.203 46.606 43.0998 46.606 43.0998 46.108 35.2385 46.108 35.2385 18.2226 39.3068 18.2226 39.3068 17.0737 35.2385 17.0737 35.2385 1.8958 43.2795 1.8958Z" fill="#7F7F7F" transform="matrix(1.00881 0 0 1 674 119)"/><path d="M84.3449 0.731574 84.3336 0.731574 84.3336 0.727745 64.4085 0.727745 64.4085 1.87671 72.3999 1.87671 72.3999 47.2649 76.3803 47.2649 76.3803 1.87671 84.3336 1.87671 84.3336 1.39798 84.3449 1.39798 84.3449 0.731574Z" fill="#7F7F7F" transform="matrix(1.00881 0 0 1 674 119)"/></g></svg>