<svg width="82" height="82" xmlns="http://www.w3.org/2000/svg" xmlns:xlink="http://www.w3.org/1999/xlink" overflow="hidden"><defs><clipPath id="clip0"><rect x="52" y="101" width="82" height="82"/></clipPath></defs><g clip-path="url(#clip0)" transform="translate(-52 -101)"><path d="M39.419 48.882 7.3219 48.882C8.80665 55.1475 12.0069 60.8758 16.5641 65.425 21.1213 69.9743 26.8553 73.1648 33.1238 74.639L33.1238 65.5994 25.3306 65.5994 25.3306 59.2999 39.4023 59.2999 39.4023 81.8605C18.1396 81.0293 1.05301 64.0204 0.0926073 42.8118L39.419 42.8118 39.419 48.882Z" fill="#7F7F7F" transform="matrix(1 0 0 1.0017 52 101)"/><path d="M81.9987 42.8118C81.5265 53.0696 77.2183 62.7759 69.9279 70.0079 62.6374 77.24 52.8963 81.4702 42.6343 81.8605L42.6343 75.5157C49.9199 75.1841 56.9151 72.5618 62.623 68.0223 68.331 63.4828 72.4604 57.2578 74.4231 50.2341L62.2532 55.6759 62.2341 55.6759 48.767 49.6895 48.767 65.4561 42.6534 65.4561 42.6534 42.8118 47.6704 42.8118 62.2437 49.3574 75.5578 42.8118 81.9987 42.8118Z" fill="#7F7F7F" transform="matrix(1 0 0 1.0017 52 101)"/><path d="M81.995 39.0296 42.714 39.0296 42.714 16.4165 57.8082 16.4165 57.8082 22.4555 48.7536 22.4555 48.7536 32.9834 74.7943 32.9834C73.0633 25.6639 68.9967 19.1067 63.2092 14.3026 57.4216 9.49853 50.2275 6.70862 42.714 6.35443L42.714 0C63.948 0.840888 81.0346 17.8402 81.995 39.0296Z" fill="#7F7F7F" transform="matrix(1 0 0 1.0017 52 101)"/><path d="M39.4476 0 39.4476 39.0487 33.3531 39.0487 33.3531 7.16665C26.9793 8.61067 21.1461 11.834 16.5318 16.4618L25.278 16.4618 25.278 22.4771 11.7249 22.4771C8.58539 27.4407 6.77543 33.1286 6.46901 38.9938L0.0926073 38.9938C1.07929 17.7948 18.1945 0.812221 39.4476 0Z" fill="#7F7F7F" transform="matrix(1 0 0 1.0017 52 101)"/></g></svg>